<mxfile host="app.diagrams.net" agent="Mozilla/5.0 (Macintosh; Intel Mac OS X 10_15_7) AppleWebKit/537.36 (KHTML, like Gecko) Chrome/138.0.0.0 Safari/537.36" version="28.0.4">
  <diagram name="第 1 页" id="jtfe-ow0oxbnyECBohum">
    <mxGraphModel dx="748" dy="504" grid="1" gridSize="10" guides="1" tooltips="1" connect="1" arrows="1" fold="1" page="1" pageScale="1" pageWidth="827" pageHeight="1169" math="0" shadow="0">
      <root>
        <mxCell id="0" />
        <mxCell id="1" parent="0" />
        <mxCell id="htVH58o4sZKEPFjyskN3-25" value="" style="edgeStyle=orthogonalEdgeStyle;rounded=0;orthogonalLoop=1;jettySize=auto;html=1;" edge="1" parent="1" source="htVH58o4sZKEPFjyskN3-1" target="htVH58o4sZKEPFjyskN3-24">
          <mxGeometry relative="1" as="geometry" />
        </mxCell>
        <mxCell id="htVH58o4sZKEPFjyskN3-1" value="策略模型&amp;nbsp;π_θ" style="rounded=1;whiteSpace=wrap;html=1;" vertex="1" parent="1">
          <mxGeometry x="345" y="320" width="120" height="40" as="geometry" />
        </mxCell>
        <mxCell id="htVH58o4sZKEPFjyskN3-10" value="" style="edgeStyle=orthogonalEdgeStyle;rounded=0;orthogonalLoop=1;jettySize=auto;html=1;" edge="1" parent="1" source="htVH58o4sZKEPFjyskN3-2" target="htVH58o4sZKEPFjyskN3-3">
          <mxGeometry relative="1" as="geometry" />
        </mxCell>
        <mxCell id="htVH58o4sZKEPFjyskN3-2" value="奖励模型 r(s, a)" style="rounded=0;whiteSpace=wrap;html=1;" vertex="1" parent="1">
          <mxGeometry x="200" y="370" width="120" height="40" as="geometry" />
        </mxCell>
        <mxCell id="htVH58o4sZKEPFjyskN3-15" value="" style="edgeStyle=orthogonalEdgeStyle;rounded=0;orthogonalLoop=1;jettySize=auto;html=1;entryX=0.5;entryY=0;entryDx=0;entryDy=0;" edge="1" parent="1" source="htVH58o4sZKEPFjyskN3-3" target="htVH58o4sZKEPFjyskN3-11">
          <mxGeometry relative="1" as="geometry" />
        </mxCell>
        <mxCell id="htVH58o4sZKEPFjyskN3-3" value="参考模型 π_old" style="rounded=0;whiteSpace=wrap;html=1;" vertex="1" parent="1">
          <mxGeometry x="200" y="440" width="120" height="40" as="geometry" />
        </mxCell>
        <mxCell id="htVH58o4sZKEPFjyskN3-16" value="" style="edgeStyle=orthogonalEdgeStyle;rounded=0;orthogonalLoop=1;jettySize=auto;html=1;entryX=0.5;entryY=0;entryDx=0;entryDy=0;" edge="1" parent="1" source="htVH58o4sZKEPFjyskN3-4" target="htVH58o4sZKEPFjyskN3-12">
          <mxGeometry relative="1" as="geometry" />
        </mxCell>
        <mxCell id="htVH58o4sZKEPFjyskN3-4" value="价值模型 V(s)&lt;br&gt;&lt;font style=&quot;font-size: 8px; color: light-dark(rgb(89, 89, 89), rgb(237, 237, 237));&quot;&gt;GAE估计&lt;/font&gt;" style="rounded=0;whiteSpace=wrap;html=1;" vertex="1" parent="1">
          <mxGeometry x="370" y="440" width="120" height="40" as="geometry" />
        </mxCell>
        <mxCell id="htVH58o4sZKEPFjyskN3-7" value="" style="edgeStyle=orthogonalEdgeStyle;rounded=0;orthogonalLoop=1;jettySize=auto;html=1;" edge="1" parent="1" source="htVH58o4sZKEPFjyskN3-5" target="htVH58o4sZKEPFjyskN3-1">
          <mxGeometry relative="1" as="geometry" />
        </mxCell>
        <mxCell id="htVH58o4sZKEPFjyskN3-5" value="Input Query" style="text;whiteSpace=wrap;align=center;verticalAlign=middle;" vertex="1" parent="1">
          <mxGeometry x="355" y="280" width="100" height="20" as="geometry" />
        </mxCell>
        <mxCell id="htVH58o4sZKEPFjyskN3-17" value="" style="edgeStyle=orthogonalEdgeStyle;rounded=0;orthogonalLoop=1;jettySize=auto;html=1;" edge="1" parent="1" source="htVH58o4sZKEPFjyskN3-11" target="htVH58o4sZKEPFjyskN3-13">
          <mxGeometry relative="1" as="geometry" />
        </mxCell>
        <mxCell id="htVH58o4sZKEPFjyskN3-11" value="KL 惩罚项" style="text;whiteSpace=wrap;align=center;verticalAlign=middle;" vertex="1" parent="1">
          <mxGeometry x="210" y="500" width="100" height="30" as="geometry" />
        </mxCell>
        <mxCell id="htVH58o4sZKEPFjyskN3-18" value="" style="edgeStyle=orthogonalEdgeStyle;rounded=0;orthogonalLoop=1;jettySize=auto;html=1;" edge="1" parent="1" source="htVH58o4sZKEPFjyskN3-12" target="htVH58o4sZKEPFjyskN3-13">
          <mxGeometry relative="1" as="geometry" />
        </mxCell>
        <mxCell id="htVH58o4sZKEPFjyskN3-12" value="Advantages, Returns" style="text;whiteSpace=wrap;align=center;verticalAlign=middle;" vertex="1" parent="1">
          <mxGeometry x="380" y="500" width="100" height="30" as="geometry" />
        </mxCell>
        <mxCell id="htVH58o4sZKEPFjyskN3-13" value="PPO 损失函数优化 π_θ" style="text;whiteSpace=wrap;align=center;verticalAlign=middle;" vertex="1" parent="1">
          <mxGeometry x="274" y="570" width="140" height="30" as="geometry" />
        </mxCell>
        <mxCell id="htVH58o4sZKEPFjyskN3-19" value="" style="rounded=0;whiteSpace=wrap;html=1;fillColor=none;" vertex="1" parent="1">
          <mxGeometry x="170" y="270" width="360" height="270" as="geometry" />
        </mxCell>
        <mxCell id="htVH58o4sZKEPFjyskN3-21" value="" style="rounded=0;whiteSpace=wrap;html=1;fillColor=none;" vertex="1" parent="1">
          <mxGeometry x="170" y="540" width="360" height="70" as="geometry" />
        </mxCell>
        <mxCell id="htVH58o4sZKEPFjyskN3-22" value="&lt;strong data-end=&quot;795&quot; data-start=&quot;781&quot;&gt;PPO 训练循环阶段&lt;/strong&gt;" style="text;whiteSpace=wrap;html=1;align=center;verticalAlign=middle;" vertex="1" parent="1">
          <mxGeometry x="540" y="560" width="150" height="40" as="geometry" />
        </mxCell>
        <mxCell id="htVH58o4sZKEPFjyskN3-23" value="&lt;strong data-end=&quot;87&quot; data-start=&quot;73&quot;&gt;Rollout 阶段&lt;/strong&gt;" style="text;whiteSpace=wrap;html=1;align=center;verticalAlign=middle;" vertex="1" parent="1">
          <mxGeometry x="555" y="340" width="120" height="40" as="geometry" />
        </mxCell>
        <mxCell id="htVH58o4sZKEPFjyskN3-29" style="edgeStyle=orthogonalEdgeStyle;rounded=0;orthogonalLoop=1;jettySize=auto;html=1;exitX=0.75;exitY=1;exitDx=0;exitDy=0;entryX=0.5;entryY=0;entryDx=0;entryDy=0;" edge="1" parent="1" source="htVH58o4sZKEPFjyskN3-24" target="htVH58o4sZKEPFjyskN3-4">
          <mxGeometry relative="1" as="geometry" />
        </mxCell>
        <mxCell id="htVH58o4sZKEPFjyskN3-34" value="" style="edgeStyle=orthogonalEdgeStyle;rounded=0;orthogonalLoop=1;jettySize=auto;html=1;" edge="1" parent="1" source="htVH58o4sZKEPFjyskN3-24" target="htVH58o4sZKEPFjyskN3-2">
          <mxGeometry relative="1" as="geometry" />
        </mxCell>
        <mxCell id="htVH58o4sZKEPFjyskN3-24" value="生成 Response" style="text;whiteSpace=wrap;align=center;verticalAlign=middle;" vertex="1" parent="1">
          <mxGeometry x="355" y="380" width="100" height="20" as="geometry" />
        </mxCell>
      </root>
    </mxGraphModel>
  </diagram>
</mxfile>
